<svg version="1.1" id="Слой_1" xmlns="http://www.w3.org/2000/svg" x="0" y="0" viewBox="0 0 12 9" xml:space="preserve"><style>.st0{fill-rule:evenodd;clip-rule:evenodd;fill:#929292}</style><path id="down_copy_3" class="st0" d="M.3 4.3c.4-.4 1-.4 1.3 0l3 3.1c.4.4.4 1 0 1.3-.4.4-1 .4-1.3 0l-3-3.1c-.4-.3-.4-.9 0-1.3zm3 3.1l.7-.7L10.4.3c.4-.4 1-.4 1.3 0 .4.4.4 1 0 1.3l-7 7.1c-.4.4-1 .4-1.3 0-.4-.4-.4-1-.1-1.3z"/><ellipse class="st0" cx="4" cy="7.8" rx=".9" ry="1.1"/><ellipse class="st0" cx="4.1" cy="7.8" rx=".9" ry="1.1"/><ellipse class="st0" cx="3.9" cy="7.8" rx=".9" ry="1.1"/></svg>